<svg width="230" height="298" viewBox="0 0 230 298" fill="none" xmlns="http://www.w3.org/2000/svg">
<g clip-path="url(#clip0_207_2096)">
<path d="M67.7184 111.841L3.62867 98.016L2.79577 97.8367C2.37162 97.7446 1.93008 97.7741 1.52193 97.9217C1.11378 98.0694 0.755587 98.3292 0.488549 98.6714C0.221512 99.0136 0.0564656 99.4242 0.0124019 99.856C-0.0316618 100.288 0.0470504 100.723 0.239468 101.112L25.6857 152.788C25.8504 153.12 26.0924 153.407 26.3914 153.626C26.6905 153.845 27.0377 153.989 27.4039 154.046C27.7713 154.103 28.1471 154.07 28.4988 153.949C28.8505 153.828 29.1676 153.624 29.4226 153.353L47.0969 134.717C47.2227 134.581 47.3752 134.473 47.5448 134.399C47.7145 134.325 47.8977 134.287 48.0828 134.287C48.3345 134.283 48.5824 134.348 48.8 134.475C49.0176 134.601 49.1967 134.785 49.3181 135.005L52.9383 141.701C53.1694 142.148 53.5432 142.504 54.0003 142.713C54.4573 142.923 54.9712 142.973 55.4603 142.857L55.4783 142.853C55.9734 142.748 56.4187 142.48 56.7429 142.091C57.067 141.703 57.2511 141.216 57.2656 140.711L57.9908 125.254C57.9994 125.061 58.0476 124.872 58.1323 124.698C58.2232 124.527 58.3466 124.374 58.4957 124.25L68.6921 115.879C69.0273 115.604 69.2782 115.24 69.416 114.829C69.5538 114.418 69.573 113.977 69.4713 113.555C69.3697 113.134 69.1513 112.749 68.8413 112.446C68.5313 112.143 68.1421 111.933 67.7184 111.841ZM68.1099 115.168L57.9134 123.538C57.7805 123.645 57.6601 123.767 57.5545 123.901L3.51284 99.3918C3.46518 99.3696 3.41545 99.3522 3.36438 99.3397C3.15594 99.286 2.93527 99.3068 2.74054 99.3985C2.54581 99.4903 2.38927 99.6472 2.29799 99.8421C2.2067 100.037 2.18642 100.258 2.24065 100.466C2.29487 100.674 2.4202 100.857 2.59494 100.983L47.0293 133.623C46.8038 133.74 46.6002 133.895 46.4275 134.082L28.7533 152.718C28.6 152.879 28.4099 153.001 28.1993 153.073C27.9887 153.146 27.7638 153.166 27.5437 153.133C27.3236 153.099 27.1147 153.013 26.9349 152.882C26.7552 152.751 26.6097 152.578 26.511 152.378L1.0648 100.703C0.951044 100.47 0.90515 100.209 0.932356 99.9505C0.959561 99.6923 1.05877 99.4468 1.21867 99.2421C1.37858 99.0375 1.59276 98.8818 1.83681 98.793C2.08085 98.7041 2.34495 98.6856 2.59902 98.7395L3.4517 98.9237L67.5214 112.744C67.7758 112.799 68.0096 112.925 68.1959 113.106C68.3822 113.288 68.5136 113.519 68.575 113.772C68.6364 114.025 68.6254 114.29 68.5431 114.537C68.4608 114.784 68.3107 115.002 68.1099 115.168Z" fill="#6C63FF"/>
<path d="M81.3798 296.184C75.6309 294.631 68.6346 288.173 70.1324 279.297C70.8753 274.895 73.7264 272.045 76.6828 270.202C80.772 267.653 85.4291 266.693 89.9171 266.45C95.0937 266.17 100.265 266.876 105.403 267.622C110.475 268.359 115.547 269.019 120.642 269.422C140.579 270.985 160.637 269.496 180.124 265.005C184.934 263.895 189.714 262.593 194.466 261.099C198.969 259.773 203.372 258.128 207.64 256.175C213.29 253.463 222.477 248.185 221.728 238.41C221.331 233.227 218.279 229.087 215.2 226.203C211.477 222.716 207.17 220.422 202.951 218.194C183.327 207.831 163.665 197.591 144.023 187.29C139.438 184.886 134.823 182.546 130.374 179.729C126.209 177.091 122.063 174.027 118.71 169.791C115.783 166.09 113.166 161.123 113.258 155.57C113.335 150.965 115.431 147.057 117.997 144.136C124.352 136.905 133.341 133.973 141.465 132.438C151.559 130.53 161.799 130.54 171.899 128.697C180.055 127.21 188.768 124.338 195.401 117.608C198.207 114.871 200.191 111.404 201.13 107.598C201.977 103.613 201.566 99.4621 199.952 95.7203C198.156 91.4288 195.29 88.0102 192.276 85.2109C188.814 82.04 184.888 79.417 180.634 77.4328C171.676 73.1641 162.256 70.9416 153.08 67.6657C148.58 66.0592 144.035 64.2975 139.856 61.538C136.316 59.2001 132.46 56.0488 130.49 51.3627C126.426 41.6939 136.121 35.9315 141.614 33.7488C145.348 32.3327 149.194 31.2317 153.111 30.4575C153.939 30.2797 153.588 28.6263 152.764 28.8033C148.64 29.6072 144.599 30.7872 140.69 32.3286C137.378 33.7049 133.96 35.5136 131.358 38.6261C130.173 40.0314 129.297 41.6701 128.787 43.4359C128.277 45.2016 128.144 47.055 128.396 48.8756C129.085 53.5147 132.081 57.0893 134.895 59.6784C138.615 63.1023 142.858 65.3383 147.159 67.161C151.689 69.0807 156.315 70.5767 160.94 72.0442C170.181 74.9765 179.836 77.5896 188.178 83.8294C194.014 88.1943 201.941 96.3783 200 106.522C199.139 111.025 196.522 114.546 193.698 117.136C190.382 120.087 186.558 122.412 182.412 123.998C163.926 131.438 143.581 126.118 125.571 136.222C119.447 139.658 112.01 145.913 111.95 155.755C111.919 160.868 113.968 165.557 116.502 169.263C119.537 173.702 123.466 176.985 127.464 179.728C131.674 182.512 136.046 185.042 140.555 187.308C145.482 189.895 150.409 192.48 155.338 195.06L185.247 210.745L200.108 218.538C204.644 220.917 209.296 223.198 213.419 226.69C216.796 229.548 220.785 234.238 220.441 240.062C220.167 244.687 217.095 248.025 214.287 250.256C210.652 253.146 206.568 255.015 202.504 256.568C197.818 258.359 193.054 259.845 188.281 261.181C178.503 263.914 168.525 265.867 158.439 267.022C148.378 268.181 138.243 268.558 128.123 268.152C123.01 267.946 117.906 267.537 112.809 266.925C107.555 266.292 102.323 265.318 97.0557 264.885C92.2912 264.494 87.4808 264.584 82.7887 265.842C78.8708 266.892 74.7318 268.763 71.7578 272.415C69.5658 275.202 68.4682 278.695 68.6714 282.236C68.8727 285.769 70.1324 289.16 72.2867 291.967C74.4749 294.835 77.5496 296.899 81.0323 297.838C81.8536 298.06 82.2047 296.407 81.3798 296.184Z" fill="#E6E6E6"/>
<path d="M229.608 296.967H80.2388V298H229.608V296.967Z" fill="#3F3D56"/>
<path d="M217.64 248.31C223.029 248.31 227.398 243.941 227.398 238.552C227.398 233.163 223.029 228.794 217.64 228.794C212.251 228.794 207.882 233.163 207.882 238.552C207.882 243.941 212.251 248.31 217.64 248.31Z" fill="#E6E6E6"/>
<path d="M199.838 110.778C205.227 110.778 209.596 106.41 209.596 101.021C209.596 95.6314 205.227 91.2627 199.838 91.2627C194.449 91.2627 190.081 95.6314 190.081 101.021C190.081 106.41 194.449 110.778 199.838 110.778Z" fill="#E6E6E6"/>
<path d="M177.777 0.407964L150.682 12.1865C149.486 12.7083 148.545 13.6835 148.066 14.8981C147.588 16.1127 147.611 17.4675 148.13 18.6653L156.543 38.0184C157.065 39.215 158.04 40.1558 159.254 40.6344C160.469 41.1129 161.824 41.0901 163.022 40.571L190.116 28.7925C191.313 28.2707 192.253 27.2955 192.732 26.0809C193.211 24.8663 193.188 23.5115 192.669 22.3136L184.255 2.96059C183.734 1.76395 182.758 0.823152 181.544 0.344606C180.329 -0.133939 178.974 -0.111152 177.777 0.407964ZM178.898 2.98837C179.06 2.91869 179.231 2.86969 179.405 2.84254L170.245 20.1253L151.43 14.9767C151.547 14.8942 151.673 14.824 151.804 14.7669L178.898 2.98837ZM188.994 26.2121L161.9 37.9906C161.387 38.2131 160.806 38.2228 160.285 38.0177C159.765 37.8126 159.347 37.4094 159.123 36.8966L150.786 17.7173L170.589 23.1366C170.897 23.221 171.225 23.1978 171.518 23.0709C171.812 22.944 172.053 22.721 172.203 22.4385L181.791 4.34888L190.088 23.4354C190.311 23.9487 190.32 24.5294 190.115 25.0499C189.91 25.5705 189.507 25.9884 188.994 26.2121Z" fill="#E6E6E6"/>
<path d="M147.387 168.28C161.012 168.28 172.058 157.234 172.058 143.609C172.058 129.984 161.012 118.938 147.387 118.938C133.762 118.938 122.716 129.984 122.716 143.609C122.716 157.234 133.762 168.28 147.387 168.28Z" fill="#6C63FF"/>
<path d="M143.5 297.271H136.696C135.902 297.27 135.14 296.954 134.578 296.392C134.017 295.83 133.701 295.069 133.7 294.274V237.569C133.701 236.775 134.017 236.013 134.578 235.451C135.14 234.89 135.902 234.574 136.696 234.573H143.5C144.294 234.574 145.056 234.89 145.617 235.451C146.179 236.013 146.495 236.775 146.496 237.569V294.274C146.495 295.069 146.179 295.83 145.617 296.392C145.056 296.954 144.294 297.27 143.5 297.271Z" fill="#2F2E41"/>
<path d="M156.956 297.271H150.153C149.358 297.27 148.597 296.954 148.035 296.392C147.473 295.83 147.157 295.069 147.156 294.274V237.569C147.157 236.775 147.473 236.013 148.035 235.451C148.597 234.89 149.358 234.574 150.153 234.573H156.956C157.751 234.574 158.512 234.89 159.074 235.451C159.636 236.013 159.952 236.775 159.953 237.569V294.274C159.952 295.069 159.636 295.83 159.074 296.392C158.512 296.954 157.751 297.27 156.956 297.271Z" fill="#2F2E41"/>
<path d="M185.151 231.64C184.852 231.639 184.555 231.595 184.269 231.507C183.892 231.392 183.542 231.204 183.239 230.954C182.935 230.703 182.684 230.395 182.501 230.046L155.919 179.957C155.735 179.61 155.62 179.229 155.583 178.837C155.545 178.446 155.586 178.051 155.701 177.674C155.816 177.298 156.005 176.948 156.255 176.645C156.506 176.342 156.813 176.09 157.161 175.906L163.171 172.717C163.518 172.532 163.899 172.418 164.29 172.38C164.682 172.343 165.077 172.383 165.454 172.498C165.83 172.614 166.18 172.802 166.483 173.053C166.787 173.303 167.038 173.611 167.222 173.959L193.803 224.048C193.988 224.396 194.102 224.776 194.14 225.168C194.177 225.559 194.137 225.955 194.022 226.331C193.906 226.707 193.718 227.057 193.468 227.36C193.217 227.664 192.909 227.915 192.561 228.099L186.552 231.288C186.121 231.519 185.64 231.639 185.151 231.64Z" fill="#6C63FF"/>
<path d="M129.815 185.47C129.455 185.47 129.099 185.405 128.762 185.278L75.7147 165.238C75.3467 165.099 75.0098 164.888 74.7231 164.619C74.4365 164.35 74.2058 164.026 74.0441 163.668C73.8825 163.309 73.7931 162.922 73.7812 162.529C73.7692 162.136 73.8348 161.744 73.9743 161.376L76.3742 155.011C76.6574 154.269 77.2231 153.669 77.9476 153.343C78.6721 153.016 79.4963 152.99 80.24 153.27L133.286 173.306C134.028 173.588 134.628 174.153 134.955 174.876C135.282 175.599 135.309 176.423 135.031 177.166L132.627 183.532C132.41 184.102 132.025 184.592 131.522 184.939C131.02 185.285 130.425 185.47 129.815 185.47Z" fill="#6C63FF"/>
<path d="M162.563 172.566H131.65C130.122 172.566 128.884 173.804 128.884 175.332V241.009C128.884 242.536 130.122 243.774 131.65 243.774H162.563C164.091 243.774 165.329 242.536 165.329 241.009V175.332C165.329 173.804 164.091 172.566 162.563 172.566Z" fill="#2F2E41"/>
<path d="M165.61 119.45C167.059 122.631 168.447 126.475 166.887 129.878C166.314 131.252 165.24 132.358 163.883 132.97C162.275 133.611 160.522 133.245 159.032 132.47C155.894 130.837 153.872 127.803 151.071 125.725C149.796 124.732 148.287 124.082 146.69 123.837C144.849 123.597 143.022 124.031 141.221 124.366C139.307 124.722 137.328 124.911 135.555 123.94C133.996 123.028 132.776 121.634 132.079 119.968C131.714 119.158 130.522 119.861 130.885 120.666C132.392 124.011 135.509 126.291 139.253 126.027C141.234 125.888 143.148 125.248 145.132 125.156C146.943 125.096 148.718 125.664 150.158 126.763C153.234 128.955 155.322 132.322 158.85 133.915C160.515 134.666 162.421 134.979 164.176 134.332C165.69 133.743 166.951 132.645 167.743 131.226C170.058 127.239 168.571 122.63 166.804 118.752C166.435 117.943 165.243 118.645 165.61 119.45Z" fill="#2F2E41"/>
<path d="M150.115 151.847C148.591 151.804 146.694 151.751 145.233 150.683C144.798 150.353 144.44 149.931 144.186 149.447C143.931 148.964 143.785 148.43 143.758 147.884C143.731 147.496 143.795 147.107 143.944 146.748C144.093 146.389 144.322 146.069 144.615 145.813C145.378 145.168 146.492 145.017 147.694 145.37L146.449 136.277L147.363 136.152L148.826 146.841L148.063 146.492C147.179 146.086 145.965 145.879 145.21 146.517C145.025 146.684 144.881 146.891 144.789 147.122C144.697 147.354 144.659 147.603 144.679 147.852C144.702 148.258 144.811 148.655 145.001 149.015C145.19 149.375 145.455 149.69 145.777 149.939C146.914 150.769 148.426 150.877 150.141 150.925L150.115 151.847Z" fill="#2F2E41"/>
<path d="M141.932 137.061H136.967V137.983H141.932V137.061Z" fill="#2F2E41"/>
<path d="M157.605 137.061H152.64V137.983H157.605V137.061Z" fill="#2F2E41"/>
<path d="M128.843 185.063L107.042 178.415C106.362 178.208 105.788 177.747 105.439 177.127C105.09 176.508 104.993 175.778 105.168 175.089L107.713 165.061C107.814 164.665 108.001 164.296 108.261 163.981C108.521 163.666 108.848 163.412 109.218 163.238C109.588 163.064 109.991 162.975 110.4 162.976C110.809 162.977 111.212 163.068 111.581 163.243L133.204 173.522C133.89 173.782 134.444 174.303 134.746 174.971C135.048 175.638 135.073 176.399 134.816 177.085L132.411 183.451C132.151 184.138 131.629 184.693 130.96 184.995C130.291 185.297 129.53 185.321 128.843 185.063Z" fill="#2F2E41"/>
<path d="M156.31 179.39L165.66 200.176C165.952 200.824 166.482 201.335 167.14 201.603C167.799 201.871 168.535 201.875 169.196 201.615L178.822 197.822C179.202 197.673 179.545 197.44 179.825 197.143C180.104 196.845 180.315 196.488 180.44 196.1C180.566 195.711 180.604 195.299 180.551 194.893C180.499 194.488 180.357 194.1 180.136 193.756L167.208 173.605C166.863 172.958 166.276 172.474 165.575 172.259C164.875 172.044 164.117 172.115 163.469 172.457L157.458 175.647C156.81 175.992 156.325 176.579 156.11 177.281C155.895 177.983 155.967 178.741 156.31 179.39Z" fill="#2F2E41"/>
<path d="M67.7184 111.841L3.62867 98.016L2.79577 97.8367C2.37162 97.7446 1.93008 97.7741 1.52193 97.9217C1.11378 98.0694 0.755587 98.3292 0.488549 98.6714C0.221512 99.0136 0.0564656 99.4242 0.0124019 99.856C-0.0316618 100.288 0.0470504 100.723 0.239468 101.112L25.6857 152.788C25.8504 153.12 26.0924 153.407 26.3914 153.626C26.6905 153.845 27.0377 153.989 27.4039 154.046C27.7713 154.103 28.1471 154.07 28.4988 153.949C28.8505 153.828 29.1676 153.624 29.4226 153.353L47.0969 134.717C47.2227 134.581 47.3752 134.473 47.5448 134.399C47.7145 134.325 47.8977 134.287 48.0828 134.287C48.3345 134.283 48.5824 134.348 48.8 134.475C49.0176 134.601 49.1967 134.785 49.3181 135.005L52.9383 141.701C53.1694 142.148 53.5432 142.504 54.0003 142.713C54.4573 142.923 54.9712 142.973 55.4603 142.857L55.4783 142.853C55.9734 142.748 56.4187 142.48 56.7429 142.091C57.067 141.703 57.2511 141.216 57.2656 140.711L57.9908 125.254C57.9994 125.061 58.0476 124.872 58.1323 124.698C58.2232 124.527 58.3466 124.374 58.4957 124.25L68.6921 115.879C69.0273 115.604 69.2782 115.24 69.416 114.829C69.5538 114.418 69.573 113.977 69.4713 113.555C69.3697 113.134 69.1513 112.749 68.8413 112.446C68.5313 112.143 68.1421 111.933 67.7184 111.841ZM68.1099 115.168L57.9134 123.538C57.7805 123.645 57.6601 123.767 57.5545 123.901C57.4592 124.02 57.3769 124.149 57.3091 124.285C57.2379 124.425 57.1819 124.572 57.1418 124.724L57.1428 124.728C57.1006 124.886 57.0763 125.048 57.0702 125.212L56.3453 140.669C56.3392 140.973 56.2298 141.265 56.0352 141.499C55.8407 141.733 55.5724 141.893 55.2745 141.954L55.2655 141.956C54.9721 142.029 54.6626 142 54.3872 141.875C54.1119 141.75 53.8869 141.536 53.7486 141.267L50.1274 134.566C49.9408 134.222 49.6693 133.93 49.3386 133.72C49.0078 133.51 48.6288 133.388 48.2376 133.365L48.2332 133.366C48.1805 133.363 48.1281 133.361 48.0766 133.363C47.7116 133.363 47.352 133.452 47.0293 133.623C46.8038 133.74 46.6002 133.895 46.4275 134.082L28.7533 152.718C28.6 152.879 28.4099 153.001 28.1993 153.073C27.9887 153.146 27.7638 153.166 27.5437 153.133C27.3236 153.099 27.1147 153.013 26.935 152.882C26.7552 152.751 26.6098 152.578 26.511 152.378L1.0648 100.703C0.951044 100.47 0.90515 100.209 0.932356 99.9505C0.959561 99.6923 1.05877 99.4468 1.21867 99.2421C1.37858 99.0375 1.59276 98.8818 1.83681 98.793C2.08085 98.7041 2.34495 98.6856 2.59902 98.7395L3.4517 98.9237L67.5214 112.744C67.7758 112.799 68.0096 112.925 68.1959 113.106C68.3822 113.288 68.5136 113.519 68.575 113.772C68.6364 114.025 68.6254 114.29 68.5431 114.537C68.4608 114.784 68.3107 115.002 68.1099 115.168Z" fill="#3F3D56"/>
<path d="M57.759 123.992L57.3782 124.832L57.1429 124.728L57.1419 124.724L3.14308 100.239L48.2332 133.366L48.2376 133.365L48.357 133.457L47.8133 134.2L47.0293 133.623L2.595 100.983C2.42025 100.857 2.29493 100.675 2.24071 100.466C2.18648 100.258 2.20676 100.037 2.29805 99.8422C2.38933 99.6473 2.54587 99.4903 2.7406 99.3986C2.93533 99.3068 3.156 99.286 3.36444 99.3398C3.41551 99.3522 3.46524 99.3697 3.5129 99.3919L57.5545 123.901L57.759 123.992Z" fill="#3F3D56"/>
</g>
<defs>
<clipPath id="clip0_207_2096">
<rect width="229.608" height="298" fill="white"/>
</clipPath>
</defs>
</svg>
