<svg width="280" height="230" viewBox="0 0 280 230" fill="none" xmlns="http://www.w3.org/2000/svg">
<g clip-path="url(#clip0_207_2022)">
<path d="M227.593 23.1159C229.38 15.8279 227.681 7.32844 221.908 2.53467C221.795 10.694 218.8 18.5505 213.452 24.7141C211.381 27.0836 208.831 29.5035 208.73 32.649C208.668 34.6061 209.623 36.486 210.94 37.9355C212.256 39.3851 213.917 40.4698 215.559 41.538L215.8 41.9633C221.082 36.6344 225.806 30.4038 227.593 23.1159Z" fill="#F0F0F0"/>
<path d="M221.792 2.64141C224.006 8.44444 224.336 14.7975 222.733 20.7983C222.411 22.0963 221.887 23.3354 221.179 24.47C220.454 25.5529 219.452 26.4219 218.277 26.9867C217.192 27.5353 216.019 27.9708 215.087 28.7735C214.616 29.1914 214.238 29.7043 213.979 30.2784C213.72 30.8525 213.585 31.4749 213.583 32.1047C213.538 33.6741 214.06 35.166 214.621 36.6072C215.243 38.2074 215.915 39.8597 215.771 41.6117C215.754 41.824 216.084 41.8386 216.102 41.6267C216.352 38.5785 214.282 36.0037 213.953 33.0471C213.8 31.6675 214.062 30.2334 215.082 29.2275C215.974 28.3479 217.183 27.8978 218.286 27.3519C219.44 26.8177 220.446 26.0092 221.215 24.9968C221.979 23.9019 222.55 22.6851 222.905 21.3984C223.751 18.5146 224.138 15.5157 224.052 12.5116C223.973 9.08259 223.308 5.69234 222.085 2.48758C222.009 2.28925 221.717 2.44438 221.792 2.64141Z" fill="white"/>
<path d="M223.363 18.8963C224.406 19.0284 225.462 18.7854 226.343 18.2106C227.224 17.6359 227.871 16.7668 228.171 15.7586C228.23 15.5544 227.916 15.4518 227.856 15.6563C227.579 16.5957 226.976 17.4052 226.155 17.9387C225.333 18.4723 224.349 18.6947 223.378 18.5659C223.167 18.5381 223.153 18.8687 223.363 18.8963Z" fill="white"/>
<path d="M218.864 26.7809C217.531 25.0937 216.884 22.9664 217.051 20.8231C217.067 20.6107 216.737 20.596 216.72 20.8081C216.551 23.0388 217.229 25.2512 218.619 27.004C218.752 27.1709 218.995 26.947 218.864 26.7809Z" fill="white"/>
<path d="M223.574 9.26579C223.16 9.29878 222.744 9.22834 222.363 9.0608C221.983 8.89326 221.65 8.63386 221.395 8.30591C221.264 8.13733 221.021 8.36148 221.151 8.52895C221.434 8.88997 221.802 9.17599 222.222 9.36203C222.642 9.54807 223.101 9.62846 223.559 9.59618C223.603 9.59675 223.645 9.58077 223.677 9.55147C223.709 9.52218 223.728 9.48178 223.732 9.43847C223.734 9.39471 223.718 9.35203 223.689 9.31969C223.659 9.28736 223.618 9.26799 223.574 9.26579Z" fill="white"/>
<path d="M196.944 7.25293C197.022 7.3605 197.101 7.46807 197.178 7.5783C198.226 9.02999 199.153 10.5644 199.952 12.1663C200.016 12.2892 200.078 12.4146 200.138 12.5391C202.022 16.4189 203.168 20.6147 203.52 24.9131C203.658 26.6237 203.666 28.3423 203.544 30.0541C203.375 32.4181 203.003 34.9679 203.607 37.1845C203.667 37.4165 203.742 37.6445 203.831 37.8672L215.262 42.2246C215.293 42.2215 215.323 42.221 215.354 42.2179L215.803 42.4127C215.815 42.3249 215.826 42.2335 215.839 42.1457C215.846 42.0948 215.851 42.0429 215.859 41.9919C215.863 41.9577 215.867 41.9234 215.873 41.8927C215.874 41.8813 215.875 41.8698 215.876 41.861C215.881 41.8304 215.883 41.8013 215.888 41.7732C215.951 41.2626 216.011 40.7507 216.067 40.2374C216.068 40.2348 216.068 40.2348 216.067 40.2312C216.533 36.3244 216.534 32.376 216.07 28.469C216.054 28.3526 216.04 28.2336 216.019 28.1152C215.779 26.3725 215.397 24.6523 214.876 22.9718C214.588 22.0525 214.254 21.1484 213.874 20.263C212.89 17.977 211.551 15.8602 209.909 13.99C206.634 10.2624 202.203 7.6237 197.317 7.27583C197.192 7.26703 197.07 7.25911 196.944 7.25293Z" fill="#F0F0F0"/>
<path d="M196.914 7.40755C202.176 10.708 206.264 15.5823 208.597 21.3383C209.122 22.5685 209.449 23.8737 209.567 25.2058C209.64 26.5071 209.363 27.8043 208.765 28.9624C208.229 30.0535 207.555 31.1075 207.294 32.3098C207.169 32.9272 207.176 33.564 207.315 34.1784C207.454 34.7928 207.721 35.3709 208.099 35.8748C209.008 37.1549 210.322 38.0321 211.638 38.8453C213.098 39.7482 214.63 40.6628 215.57 42.1483C215.683 42.3283 215.956 42.1411 215.842 41.9614C214.207 39.3768 211.004 38.5674 208.962 36.4044C208.009 35.3952 207.354 34.0926 207.563 32.6753C207.746 31.436 208.44 30.3485 208.992 29.2485C209.592 28.1272 209.908 26.8761 209.913 25.6045C209.863 24.2707 209.587 22.9551 209.096 21.714C208.035 18.9023 206.538 16.2749 204.661 13.9281C202.533 11.2378 199.961 8.93134 197.056 7.10842C196.876 6.99567 196.736 7.29552 196.914 7.40755Z" fill="white"/>
<path d="M207.955 19.4408C208.868 18.9182 209.565 18.0882 209.922 17.0991C210.279 16.1099 210.273 15.026 209.905 14.041C209.829 13.8419 209.516 13.9494 209.592 14.1488C209.936 15.0654 209.942 16.075 209.608 16.9954C209.273 17.9158 208.621 18.6864 207.768 19.168C207.583 19.2729 207.771 19.5451 207.955 19.4408Z" fill="white"/>
<path d="M209.109 28.4454C207.03 27.9003 205.232 26.5915 204.075 24.7799C203.96 24.6003 203.687 24.7875 203.802 24.9668C205.01 26.8498 206.883 28.2081 209.048 28.7705C209.255 28.824 209.314 28.4986 209.109 28.4454Z" fill="white"/>
<path d="M202.326 11.6243C202.015 11.9001 201.64 12.0944 201.235 12.1896C200.831 12.2849 200.409 12.2781 200.008 12.17C199.802 12.1139 199.743 12.4394 199.947 12.4951C200.391 12.6125 200.857 12.6194 201.304 12.5151C201.751 12.4109 202.166 12.1987 202.513 11.8971C202.548 11.8714 202.572 11.8334 202.579 11.7907C202.587 11.748 202.579 11.7039 202.555 11.6673C202.531 11.6313 202.492 11.6066 202.449 11.5985C202.406 11.5905 202.362 11.5998 202.326 11.6243Z" fill="white"/>
<path d="M181.829 171.878C143.503 171.878 112.323 140.698 112.323 102.372C112.323 64.0464 143.503 32.8662 181.829 32.8662C185.88 32.8657 189.925 33.2161 193.916 33.9136C193.966 33.9222 194.013 33.9405 194.056 33.9675C194.099 33.9945 194.136 34.0297 194.165 34.071C194.194 34.1123 194.214 34.159 194.225 34.2082C194.236 34.2575 194.238 34.3085 194.229 34.3583C194.22 34.408 194.202 34.4556 194.175 34.4982C194.148 34.5408 194.112 34.5776 194.071 34.6066C194.029 34.6355 193.983 34.656 193.934 34.6669C193.884 34.6778 193.833 34.6789 193.783 34.67C189.836 33.9804 185.836 33.6338 181.829 33.6342C143.926 33.6342 113.091 64.4698 113.091 102.372C113.091 140.274 143.926 171.11 181.829 171.11C219.731 171.11 250.566 140.274 250.566 102.372C250.583 85.2406 244.186 68.7235 232.635 56.0724C232.567 55.997 232.532 55.8978 232.537 55.7965C232.542 55.6951 232.586 55.5998 232.661 55.5315C232.736 55.4631 232.835 55.4272 232.937 55.4315C233.038 55.4359 233.134 55.4803 233.203 55.5549C244.883 68.3474 251.351 85.0491 251.334 102.372C251.334 140.698 220.154 171.878 181.829 171.878Z" fill="#E4E4E4"/>
<path d="M212.475 56.7043C220.07 56.7043 226.227 50.5474 226.227 42.9525C226.227 35.3576 220.07 29.2007 212.475 29.2007C204.881 29.2007 198.724 35.3576 198.724 42.9525C198.724 50.5474 204.881 56.7043 212.475 56.7043Z" fill="#6C63FF"/>
<path d="M210.6 50.1095C210.362 50.1095 210.128 50.0541 209.916 49.9479C209.703 49.8417 209.518 49.6875 209.376 49.4974L205.624 44.4951C205.504 44.3344 205.416 44.1515 205.366 43.9569C205.316 43.7623 205.305 43.5598 205.334 43.361C205.362 43.1621 205.429 42.9708 205.532 42.7979C205.634 42.6251 205.77 42.4741 205.93 42.3536C206.091 42.2331 206.274 42.1454 206.468 42.0955C206.663 42.0457 206.866 42.0346 207.064 42.0631C207.263 42.0915 207.455 42.1588 207.627 42.2611C207.8 42.3635 207.951 42.4989 208.072 42.6596L210.526 45.932L216.83 36.4761C217.056 36.1399 217.406 35.9069 217.803 35.8281C218.2 35.7493 218.612 35.8312 218.949 36.0558C219.286 36.2803 219.52 36.6293 219.6 37.0262C219.68 37.4231 219.599 37.8356 219.376 38.1731L211.873 49.4282C211.737 49.6318 211.554 49.7998 211.34 49.9183C211.126 50.0367 210.887 50.1021 210.642 50.109C210.628 50.1092 210.614 50.1095 210.6 50.1095Z" fill="white"/>
<path d="M180.041 91.5856L158.834 32.5898L159.372 32.3965L155.472 21.5456L154.934 21.7391L148.423 3.62553C148.18 2.94901 147.806 2.327 147.322 1.79504C146.838 1.26307 146.255 0.831554 145.604 0.525129C144.954 0.218704 144.25 0.0433687 143.532 0.00913886C142.814 -0.025091 142.096 0.0824533 141.419 0.32563L103.083 14.1059C102.406 14.3491 101.784 14.7231 101.252 15.2067C100.72 15.6902 100.289 16.2738 99.9822 16.9241C99.6758 17.5744 99.5004 18.2787 99.4662 18.9968C99.4319 19.7149 99.5395 20.4327 99.7826 21.1092L104.322 33.7391L103.473 34.0663L106.371 41.5918L107.051 41.3298L107.653 43.0037L106.929 43.2825L109.827 50.808L110.381 50.5945L131.4 109.069C131.642 109.747 132.016 110.37 132.499 110.902C132.983 111.435 133.566 111.867 134.217 112.174C134.868 112.48 135.572 112.655 136.291 112.689C137.009 112.723 137.728 112.614 138.404 112.369L176.74 98.5891C178.106 98.0965 179.22 97.0826 179.839 95.7697C180.457 94.4567 180.53 92.952 180.041 91.5856Z" fill="#3F3D56"/>
<path d="M136.388 110.425C135.848 110.424 135.322 110.257 134.88 109.946C134.439 109.635 134.104 109.196 133.921 108.688L101.969 19.7993C101.734 19.1446 101.769 18.4233 102.065 17.794C102.362 17.1647 102.896 16.6789 103.551 16.4435L111.708 13.5115L111.695 13.7969C111.674 14.2923 111.776 14.7853 111.99 15.2323C112.205 15.6794 112.526 16.0669 112.925 16.3606C113.325 16.6543 113.79 16.8453 114.281 16.9167C114.772 16.9881 115.272 16.9377 115.739 16.77L133.841 10.263C134.278 10.0628 134.662 9.76257 134.961 9.38656C135.261 9.01056 135.468 8.56936 135.565 8.09866C135.661 7.6358 135.646 7.15676 135.522 6.70061C135.398 6.24446 135.168 5.82414 134.85 5.47395L134.659 5.2615L143.085 2.23274C143.739 1.99838 144.46 2.03325 145.09 2.3297C145.719 2.62616 146.205 3.15999 146.441 3.81415L176.925 88.6211C177.547 90.3585 177.455 92.2716 176.668 93.9409C175.882 95.6102 174.465 96.8993 172.729 97.5255L137.277 110.269C136.992 110.372 136.691 110.425 136.388 110.425Z" fill="white"/>
<path d="M133.264 47.3781C138.991 47.3781 143.633 42.7361 143.633 37.0099C143.633 31.2836 138.991 26.6416 133.264 26.6416C127.538 26.6416 122.896 31.2836 122.896 37.0099C122.896 42.7361 127.538 47.3781 133.264 47.3781Z" fill="#6C63FF"/>
<path d="M158.957 52.0877L123.051 64.9943C122.939 65.0349 122.82 65.053 122.701 65.0475C122.582 65.042 122.465 65.0131 122.357 64.9624C122.249 64.9117 122.152 64.8402 122.072 64.7519C121.991 64.6637 121.929 64.5605 121.889 64.4483C121.849 64.3361 121.831 64.217 121.837 64.0978C121.842 63.9787 121.871 63.8619 121.922 63.754C121.973 63.6462 122.045 63.5494 122.133 63.4694C122.222 63.3893 122.325 63.3274 122.438 63.2874L158.343 50.3808C158.57 50.3002 158.818 50.3125 159.036 50.4151C159.253 50.5178 159.42 50.7023 159.501 50.9283C159.583 51.1542 159.571 51.4032 159.469 51.6206C159.367 51.8379 159.183 52.0059 158.957 52.0877Z" fill="#E6E6E6"/>
<path d="M148.294 60.2712L136.483 64.5166C136.371 64.5571 136.252 64.5752 136.133 64.5697C136.014 64.5641 135.897 64.5352 135.789 64.4845C135.681 64.4338 135.584 64.3622 135.504 64.274C135.424 64.1858 135.362 64.0827 135.322 63.9704C135.281 63.8582 135.263 63.7391 135.269 63.62C135.275 63.5009 135.304 63.3841 135.355 63.2763C135.406 63.1684 135.478 63.0717 135.566 62.9916C135.654 62.9115 135.758 62.8497 135.87 62.8095L147.68 58.5642C147.907 58.4828 148.156 58.4947 148.374 58.5973C148.591 58.6998 148.759 58.8846 148.841 59.1109C148.922 59.3373 148.91 59.5867 148.808 59.8043C148.705 60.0219 148.52 60.1899 148.294 60.2712Z" fill="#E6E6E6"/>
<path d="M151.103 68.0862L139.292 72.3315C139.18 72.3718 139.061 72.3896 138.942 72.3839C138.823 72.3783 138.707 72.3492 138.599 72.2985C138.491 72.2477 138.395 72.1762 138.314 72.0881C138.234 71.9999 138.172 71.8969 138.132 71.7848C138.092 71.6727 138.074 71.5538 138.08 71.4348C138.085 71.3158 138.114 71.1992 138.165 71.0914C138.216 70.9837 138.287 70.887 138.376 70.8069C138.464 70.7268 138.567 70.6648 138.679 70.6245L150.489 66.3791C150.716 66.2978 150.965 66.3097 151.183 66.4122C151.4 66.5147 151.568 66.6995 151.65 66.9259C151.731 67.1522 151.719 67.4016 151.616 67.6192C151.514 67.8368 151.329 68.0048 151.103 68.0862Z" fill="#E6E6E6"/>
<path d="M152.542 72.0887L140.732 76.3341C140.619 76.3747 140.5 76.3928 140.381 76.3874C140.262 76.3819 140.145 76.353 140.037 76.3023C139.929 76.2516 139.832 76.1801 139.752 76.0919C139.672 76.0036 139.609 75.9004 139.569 75.7882C139.529 75.6759 139.511 75.5568 139.517 75.4376C139.522 75.3185 139.552 75.2016 139.603 75.0938C139.654 74.9859 139.725 74.8892 139.814 74.8091C139.902 74.729 140.006 74.6672 140.118 74.6271L151.928 70.3818C152.041 70.3412 152.16 70.3231 152.279 70.3286C152.398 70.3341 152.515 70.363 152.623 70.4137C152.731 70.4644 152.828 70.5359 152.908 70.6241C152.988 70.7124 153.05 70.8155 153.091 70.9278C153.131 71.04 153.149 71.1591 153.143 71.2783C153.137 71.3974 153.108 71.5142 153.057 71.6221C153.006 71.7299 152.934 71.8266 152.846 71.9067C152.758 71.9868 152.654 72.0486 152.542 72.0887Z" fill="#E6E6E6"/>
<path d="M156.302 61.7425L131.244 70.7497C131.132 70.7903 131.013 70.8084 130.894 70.8029C130.775 70.7974 130.658 70.7685 130.55 70.7178C130.442 70.6671 130.345 70.5956 130.265 70.5074C130.185 70.4191 130.123 70.316 130.082 70.2037C130.042 70.0915 130.024 69.9724 130.03 69.8532C130.036 69.7341 130.065 69.6173 130.116 69.5094C130.167 69.4016 130.238 69.3049 130.327 69.2248C130.415 69.1447 130.519 69.0829 130.631 69.0428L155.689 60.0356C155.801 59.995 155.92 59.9769 156.039 59.9824C156.158 59.9879 156.275 60.0168 156.383 60.0675C156.491 60.1182 156.588 60.1897 156.668 60.278C156.748 60.3662 156.811 60.4694 156.851 60.5816C156.891 60.6938 156.909 60.8129 156.903 60.9321C156.898 61.0512 156.868 61.168 156.817 61.2759C156.766 61.3837 156.695 61.4804 156.606 61.5605C156.518 61.6406 156.415 61.7025 156.302 61.7425Z" fill="#E6E6E6"/>
<path d="M151.255 81.8057L146.967 83.3471C146.582 83.4851 146.158 83.4647 145.789 83.2903C145.419 83.1159 145.134 82.8019 144.995 82.4171C144.857 82.0324 144.877 81.6085 145.051 81.2386C145.225 80.8687 145.539 80.5831 145.924 80.4445L150.212 78.903C150.597 78.765 151.021 78.7854 151.391 78.9598C151.76 79.1342 152.046 79.4483 152.184 79.833C152.322 80.2178 152.302 80.6417 152.128 81.0116C151.954 81.3815 151.64 81.6671 151.255 81.8057Z" fill="#6C63FF"/>
<path d="M117.462 13.7987C117.791 13.7987 118.058 13.5317 118.058 13.2023C118.058 12.873 117.791 12.606 117.462 12.606C117.133 12.606 116.866 12.873 116.866 13.2023C116.866 13.5317 117.133 13.7987 117.462 13.7987Z" fill="white"/>
<path d="M48.8778 46.7429C55.5618 38.8752 66.4067 33.9168 76.405 36.4875C67.4 43.1916 61.0565 52.8648 58.4969 63.7957C57.525 68.0149 56.8834 72.8088 53.4579 75.4567C51.3264 77.1044 48.4604 77.5548 45.7831 77.2558C43.1057 76.9567 40.5574 75.9798 38.0434 75.0114L37.375 75.0856C39.0564 64.8998 42.1939 54.6107 48.8778 46.7429Z" fill="#F0F0F0"/>
<path d="M76.3802 36.7031C68.126 38.9135 60.7782 43.6685 55.3803 50.2927C54.1929 51.6981 53.2345 53.2819 52.5404 54.9857C51.9178 56.6673 51.7569 58.485 52.0744 60.2498C52.3374 61.9013 52.7976 63.5602 52.6545 65.2468C52.5685 66.1091 52.3011 66.9434 51.87 67.6951C51.4389 68.4468 50.8537 69.0989 50.1529 69.6086C48.4398 70.924 46.3561 71.5454 44.2974 72.0823C42.0115 72.6784 39.6278 73.2614 37.7907 74.8343C37.5681 75.0249 37.2854 74.6684 37.5077 74.4781C40.7039 71.7414 45.2433 71.9735 48.8041 69.9558C50.4656 69.0144 51.8534 67.5665 52.1524 65.6184C52.4138 63.9149 51.9407 62.2039 51.66 60.534C51.325 58.8169 51.4156 57.0439 51.9238 55.3699C52.529 53.6362 53.4248 52.0181 54.5728 50.585C57.106 47.3173 60.1372 44.4682 63.5554 42.142C67.4418 39.4656 71.7575 37.4738 76.3156 36.2526C76.5977 36.1772 76.6605 36.6281 76.3802 36.7031Z" fill="white"/>
<path d="M56.9926 48.057C56.0041 47.0005 55.4234 45.627 55.3542 44.1819C55.2849 42.7367 55.7316 41.314 56.6145 40.1678C56.7939 39.9365 57.1618 40.2045 56.9821 40.4361C56.158 41.5019 55.742 42.8272 55.8093 44.1728C55.8765 45.5184 56.4226 46.7956 57.3488 47.774C57.5499 47.9868 57.1925 48.2687 56.9926 48.057Z" fill="white"/>
<path d="M51.8308 59.4297C54.7858 59.5545 57.6792 58.561 59.9342 56.6473C60.1574 56.4575 60.4402 56.814 60.2172 57.0035C57.8669 58.9906 54.8538 60.0184 51.7791 59.8817C51.486 59.8685 51.5394 59.4165 51.8308 59.4297Z" fill="white"/>
<path d="M67.5585 40.0572C67.8557 40.5457 68.2697 40.9527 68.7631 41.2417C69.2566 41.5306 69.814 41.6925 70.3855 41.7128C70.6786 41.7223 70.6249 42.1743 70.3338 42.1648C69.7025 42.1395 69.087 41.96 68.5411 41.6419C67.9952 41.3238 67.5355 40.8769 67.2022 40.3402C67.1666 40.2923 67.1505 40.2326 67.1573 40.1732C67.1641 40.1138 67.1932 40.0593 67.2388 40.0206C67.2862 39.9834 67.3463 39.9663 67.4062 39.9732C67.466 39.98 67.5207 40.0102 67.5585 40.0572Z" fill="white"/>
<path d="M91.2726 68.1217C91.0895 68.121 90.9063 68.1203 90.7209 68.1226C88.2582 68.1256 85.7999 68.3285 83.3701 68.7296C83.1817 68.7576 82.9913 68.7888 82.8041 68.8222C76.9605 69.8508 71.3587 71.9554 66.2834 75.0289C64.2649 76.2538 62.3426 77.6305 60.533 79.147C58.034 81.2416 55.4911 83.7115 52.5331 84.8254C52.2258 84.945 51.9114 85.0456 51.5917 85.1264L37.5176 75.8955C37.4962 75.8584 37.4725 75.8245 37.4509 75.7874L36.8721 75.4445C36.9599 75.3598 37.0529 75.2738 37.1408 75.189C37.1915 75.1397 37.2454 75.0923 37.2962 75.043C37.331 75.0107 37.366 74.9785 37.3956 74.9474C37.4072 74.9367 37.4189 74.926 37.4283 74.9184C37.4579 74.8873 37.4887 74.8616 37.5162 74.8337C38.0345 74.3516 38.557 73.8722 39.0838 73.3957C39.0859 73.3925 39.0859 73.3925 39.0912 73.3914C43.1146 69.7709 47.4757 66.4544 52.2015 63.9054C52.3437 63.8287 52.4878 63.7487 52.6364 63.6763C54.773 62.5391 56.9989 61.5785 59.2919 60.8039C60.5489 60.3838 61.8263 60.0277 63.1193 59.7368C66.4616 58.9915 69.9003 58.7767 73.3094 59.1C80.1053 59.7456 86.619 62.5575 90.9459 67.7238C91.0565 67.856 91.1642 67.9863 91.2726 68.1217Z" fill="#F0F0F0"/>
<path d="M91.1236 68.2797C83.2023 65.075 74.4726 64.4477 66.1745 66.4869C64.3803 66.8941 62.6615 67.5817 61.0815 68.5242C59.5719 69.492 58.3491 70.8464 57.54 72.4467C56.7557 73.9236 56.1244 75.5252 54.9947 76.7858C54.4069 77.4224 53.6911 77.9277 52.8943 78.2683C52.0975 78.6089 51.2377 78.7773 50.3712 78.7623C48.2114 78.7811 46.1736 78.0228 44.2066 77.212C42.0225 76.3117 39.7683 75.342 37.3544 75.4918C37.0619 75.51 37.0509 75.0551 37.3429 75.037C41.5426 74.7763 45.0274 77.6946 49.0852 78.2274C50.9786 78.4761 52.9584 78.1556 54.37 76.7802C55.6044 75.5774 56.2568 73.9264 57.038 72.4241C57.8044 70.8514 58.9442 69.4903 60.3579 68.4597C61.8849 67.4398 63.5743 66.6872 65.3538 66.2341C69.3438 65.1501 73.4794 64.7003 77.6091 64.901C82.3236 65.1039 86.9686 66.1119 91.3432 67.8811C91.6139 67.9908 91.3926 68.3886 91.1236 68.2797Z" fill="white"/>
<path d="M68.8082 65.673C68.6551 64.2343 69.0183 62.788 69.8331 61.5925C70.6479 60.3969 71.8611 59.5299 73.2561 59.1462C73.5387 59.0696 73.6711 59.505 73.3882 59.5818C72.0885 59.9366 70.9584 60.7444 70.202 61.8592C69.4455 62.9741 69.1125 64.3226 69.263 65.6615C69.2954 65.9525 68.8404 65.9623 68.8082 65.673Z" fill="white"/>
<path d="M57.8393 71.6455C60.1235 73.5242 63.0319 74.473 65.9845 74.3027C66.277 74.2855 66.2882 74.7404 65.996 74.7575C62.9231 74.9291 59.8985 73.9355 57.5258 71.9752C57.2998 71.7882 57.6145 71.4595 57.8393 71.6455Z" fill="white"/>
<path d="M82.0605 65.6465C82.0037 66.2155 82.0892 66.7897 82.3092 67.3175C82.5292 67.8453 82.8769 68.3102 83.3209 68.6705C83.5492 68.8545 83.2342 69.1831 83.0074 69.0003C82.5187 68.6 82.1353 68.0861 81.891 67.5034C81.6466 66.9208 81.5486 66.2872 81.6056 65.658C81.606 65.5983 81.6292 65.5409 81.6703 65.4976C81.7115 65.4543 81.7676 65.4283 81.8273 65.4249C81.8875 65.4236 81.9458 65.4462 81.9895 65.4877C82.0331 65.5292 82.0586 65.5863 82.0605 65.6465Z" fill="white"/>
<path d="M249.472 197.963C256.76 199.75 265.259 198.051 270.053 192.278C261.894 192.165 254.037 189.17 247.874 183.822C245.504 181.751 243.084 179.201 239.939 179.1C237.982 179.038 236.102 179.993 234.652 181.31C233.203 182.626 232.118 184.287 231.05 185.928L230.625 186.169C235.953 191.452 242.184 196.176 249.472 197.963Z" fill="#F0F0F0"/>
<path d="M269.947 192.162C264.144 194.376 257.791 194.705 251.79 193.102C250.492 192.78 249.253 192.256 248.118 191.548C247.035 190.823 246.166 189.821 245.601 188.646C245.053 187.561 244.617 186.388 243.815 185.456C243.397 184.985 242.884 184.607 242.31 184.348C241.736 184.089 241.113 183.954 240.483 183.952C238.914 183.907 237.422 184.429 235.981 184.99C234.381 185.612 232.728 186.284 230.976 186.14C230.764 186.123 230.749 186.453 230.961 186.471C234.01 186.721 236.584 184.651 239.541 184.322C240.921 184.169 242.355 184.431 243.361 185.451C244.24 186.343 244.69 187.552 245.236 188.655C245.77 189.809 246.579 190.815 247.591 191.584C248.686 192.348 249.903 192.919 251.19 193.274C254.073 194.12 257.072 194.507 260.076 194.421C263.505 194.342 266.896 193.677 270.1 192.454C270.299 192.379 270.144 192.086 269.947 192.162Z" fill="white"/>
<path d="M253.691 193.732C253.559 194.775 253.802 195.832 254.377 196.712C254.952 197.593 255.821 198.241 256.829 198.54C257.033 198.599 257.136 198.285 256.931 198.225C255.992 197.948 255.183 197.345 254.649 196.524C254.115 195.703 253.893 194.718 254.022 193.747C254.05 193.536 253.719 193.522 253.691 193.732Z" fill="white"/>
<path d="M245.807 189.233C247.495 187.901 249.622 187.253 251.765 187.42C251.978 187.437 251.992 187.106 251.78 187.089C249.55 186.92 247.337 187.598 245.584 188.988C245.417 189.121 245.641 189.365 245.807 189.233Z" fill="white"/>
<path d="M263.322 193.943C263.289 193.529 263.36 193.113 263.527 192.733C263.695 192.352 263.954 192.019 264.282 191.764C264.451 191.634 264.227 191.39 264.059 191.52C263.698 191.804 263.412 192.172 263.226 192.591C263.04 193.011 262.96 193.47 262.992 193.928C262.991 193.972 263.007 194.014 263.037 194.046C263.066 194.078 263.106 194.098 263.15 194.101C263.193 194.103 263.236 194.087 263.268 194.058C263.301 194.028 263.32 193.987 263.322 193.943Z" fill="white"/>
<path d="M265.335 167.313C265.228 167.391 265.12 167.47 265.01 167.547C263.558 168.595 262.024 169.522 260.422 170.321C260.299 170.385 260.173 170.448 260.049 170.508C256.169 172.391 251.973 173.537 247.675 173.889C245.964 174.027 244.246 174.035 242.534 173.913C240.17 173.744 237.62 173.372 235.404 173.976C235.172 174.036 234.944 174.111 234.721 174.2L230.363 185.631C230.367 185.662 230.367 185.692 230.37 185.723L230.175 186.172C230.263 186.184 230.355 186.195 230.442 186.208C230.493 186.215 230.545 186.22 230.596 186.228C230.63 186.232 230.665 186.236 230.695 186.242C230.707 186.243 230.718 186.244 230.727 186.245C230.758 186.251 230.787 186.253 230.815 186.257C231.325 186.321 231.837 186.38 232.351 186.437C232.353 186.438 232.353 186.438 232.357 186.436C236.264 186.902 240.212 186.903 244.119 186.439C244.235 186.423 244.354 186.409 244.473 186.388C246.216 186.148 247.936 185.766 249.616 185.245C250.535 184.957 251.44 184.623 252.325 184.243C254.611 183.259 256.728 181.921 258.598 180.278C262.326 177.003 264.964 172.572 265.312 167.687C265.321 167.562 265.329 167.439 265.335 167.313Z" fill="#F0F0F0"/>
<path d="M265.18 167.283C261.88 172.545 257.005 176.633 251.249 178.966C250.019 179.491 248.714 179.818 247.382 179.936C246.081 180.009 244.783 179.732 243.625 179.134C242.534 178.598 241.48 177.924 240.278 177.663C239.66 177.538 239.024 177.545 238.409 177.684C237.795 177.823 237.217 178.09 236.713 178.468C235.433 179.377 234.556 180.691 233.742 182.007C232.839 183.467 231.925 184.999 230.439 185.939C230.259 186.053 230.447 186.325 230.626 186.211C233.211 184.576 234.02 181.373 236.183 179.331C237.192 178.378 238.495 177.723 239.912 177.932C241.152 178.115 242.239 178.809 243.339 179.361C244.46 179.961 245.711 180.277 246.983 180.282C248.317 180.232 249.633 179.956 250.874 179.465C253.685 178.404 256.313 176.907 258.66 175.03C261.35 172.902 263.656 170.33 265.479 167.425C265.592 167.245 265.292 167.105 265.18 167.283Z" fill="white"/>
<path d="M253.147 178.324C253.67 179.237 254.5 179.934 255.489 180.291C256.478 180.648 257.562 180.642 258.547 180.274C258.746 180.198 258.638 179.886 258.439 179.961C257.522 180.306 256.513 180.311 255.592 179.977C254.672 179.642 253.901 178.99 253.42 178.137C253.315 177.952 253.043 178.14 253.147 178.324Z" fill="white"/>
<path d="M244.143 179.479C244.688 177.399 245.997 175.602 247.809 174.444C247.988 174.33 247.801 174.057 247.622 174.172C245.739 175.379 244.38 177.253 243.818 179.418C243.764 179.625 244.09 179.684 244.143 179.479Z" fill="white"/>
<path d="M260.964 172.695C260.688 172.384 260.494 172.009 260.398 171.605C260.303 171.2 260.31 170.778 260.418 170.377C260.474 170.171 260.149 170.112 260.093 170.316C259.976 170.76 259.969 171.226 260.073 171.673C260.177 172.12 260.389 172.535 260.691 172.882C260.717 172.917 260.755 172.941 260.797 172.949C260.84 172.957 260.884 172.948 260.921 172.925C260.957 172.9 260.981 172.862 260.99 172.818C260.998 172.775 260.988 172.731 260.964 172.695Z" fill="white"/>
<path d="M278.675 127.914L267.562 146.615L267.984 146.838L264.221 153.973L263.437 153.558L260.964 157.717L261.579 158.07L257.547 165.052L256.848 164.648L220.586 225.675C219.635 227.272 218.089 228.427 216.288 228.886C214.486 229.344 212.577 229.069 210.978 228.122L143.565 188.065C141.967 187.115 140.813 185.569 140.354 183.767C139.896 181.966 140.17 180.056 141.119 178.457L199.208 80.6962C200.159 79.0991 201.704 77.9446 203.506 77.486C205.307 77.0274 207.217 77.3022 208.816 78.2501L276.229 118.306C277.825 119.258 278.979 120.803 279.438 122.604C279.896 124.406 279.622 126.315 278.675 127.914Z" fill="#3F3D56"/>
<path d="M213.38 224.348L145.73 184.151C145.237 183.858 144.882 183.382 144.74 182.826C144.599 182.271 144.684 181.682 144.976 181.19L203.45 82.7779C203.744 82.2857 204.22 81.9299 204.775 81.7886C205.33 81.6472 205.919 81.7319 206.412 82.024L274.062 122.221C274.555 122.514 274.91 122.991 275.052 123.546C275.193 124.101 275.108 124.69 274.816 125.182L216.342 223.594C216.048 224.086 215.572 224.442 215.017 224.583C214.461 224.725 213.873 224.64 213.38 224.348Z" fill="white"/>
<path d="M241.169 100.567C241.498 100.567 241.765 100.3 241.765 99.9704C241.765 99.641 241.498 99.374 241.169 99.374C240.84 99.374 240.573 99.641 240.573 99.9704C240.573 100.3 240.84 100.567 241.169 100.567Z" fill="white"/>
<path d="M237.479 171.063L181.007 137.509C180.83 137.405 180.675 137.266 180.552 137.102C180.428 136.938 180.338 136.751 180.287 136.552C180.236 136.352 180.225 136.145 180.254 135.942C180.283 135.738 180.352 135.543 180.457 135.366C180.562 135.189 180.701 135.035 180.866 134.912C181.031 134.789 181.218 134.7 181.417 134.65C181.617 134.599 181.824 134.589 182.027 134.619C182.231 134.649 182.426 134.719 182.602 134.824L239.074 168.379C239.251 168.483 239.406 168.621 239.529 168.785C239.653 168.95 239.743 169.137 239.794 169.336C239.845 169.535 239.856 169.742 239.827 169.946C239.798 170.149 239.729 170.345 239.624 170.522C239.519 170.698 239.38 170.852 239.215 170.975C239.05 171.098 238.863 171.187 238.664 171.238C238.464 171.288 238.257 171.299 238.054 171.269C237.85 171.239 237.655 171.169 237.479 171.063Z" fill="#E6E6E6"/>
<path d="M214.93 165.864L196.355 154.827C196.179 154.722 196.025 154.584 195.902 154.419C195.779 154.255 195.69 154.068 195.639 153.87C195.589 153.671 195.578 153.464 195.607 153.261C195.636 153.058 195.705 152.863 195.81 152.687C195.915 152.51 196.053 152.356 196.217 152.234C196.382 152.111 196.568 152.022 196.767 151.971C196.966 151.92 197.173 151.91 197.376 151.939C197.579 151.968 197.774 152.037 197.95 152.142L216.525 163.179C216.701 163.284 216.855 163.422 216.978 163.586C217.101 163.751 217.19 163.937 217.241 164.136C217.291 164.335 217.302 164.542 217.273 164.745C217.244 164.948 217.175 165.143 217.07 165.319C216.965 165.495 216.827 165.649 216.662 165.772C216.498 165.895 216.311 165.984 216.113 166.035C215.914 166.085 215.707 166.096 215.504 166.067C215.301 166.038 215.106 165.969 214.93 165.864Z" fill="#E6E6E6"/>
<path d="M207.627 178.154L189.052 167.118C188.696 166.906 188.438 166.562 188.336 166.16C188.234 165.759 188.296 165.334 188.507 164.978C188.719 164.622 189.063 164.364 189.464 164.262C189.865 164.16 190.291 164.221 190.647 164.433L209.222 175.47C209.398 175.575 209.552 175.713 209.675 175.877C209.798 176.041 209.887 176.228 209.937 176.427C209.988 176.626 209.999 176.832 209.97 177.035C209.94 177.238 209.871 177.433 209.767 177.61C209.662 177.786 209.523 177.94 209.359 178.063C209.195 178.185 209.008 178.275 208.809 178.325C208.611 178.376 208.404 178.387 208.201 178.358C207.998 178.328 207.803 178.259 207.627 178.154Z" fill="#E6E6E6"/>
<path d="M203.886 184.45L185.311 173.413C185.134 173.308 184.98 173.17 184.856 173.006C184.733 172.842 184.644 172.655 184.593 172.456C184.542 172.257 184.531 172.05 184.56 171.846C184.589 171.643 184.658 171.448 184.763 171.271C184.868 171.095 185.007 170.94 185.171 170.818C185.336 170.695 185.523 170.606 185.722 170.555C185.921 170.505 186.128 170.494 186.331 170.524C186.534 170.553 186.73 170.623 186.906 170.728L205.481 181.765C205.658 181.87 205.813 182.008 205.937 182.172C206.06 182.336 206.15 182.523 206.201 182.723C206.252 182.922 206.264 183.129 206.234 183.332C206.205 183.536 206.136 183.732 206.031 183.908C205.926 184.085 205.787 184.239 205.623 184.362C205.458 184.485 205.27 184.574 205.071 184.625C204.872 184.675 204.664 184.685 204.461 184.655C204.258 184.625 204.062 184.556 203.886 184.45Z" fill="#E6E6E6"/>
<path d="M221.747 178.113L182.337 154.696C181.983 154.483 181.727 154.139 181.626 153.739C181.525 153.338 181.587 152.914 181.798 152.559C182.009 152.204 182.352 151.947 182.752 151.844C183.152 151.742 183.576 151.802 183.932 152.011L223.342 175.428C223.519 175.532 223.674 175.671 223.798 175.835C223.921 175.999 224.011 176.186 224.062 176.385C224.113 176.584 224.125 176.792 224.095 176.995C224.066 177.199 223.997 177.394 223.892 177.571C223.787 177.748 223.648 177.902 223.483 178.025C223.319 178.148 223.131 178.237 222.932 178.287C222.733 178.338 222.525 178.348 222.322 178.318C222.119 178.288 221.923 178.218 221.747 178.113Z" fill="#E6E6E6"/>
<path d="M214.236 208.039L207.491 204.032C206.887 203.672 206.45 203.086 206.277 202.404C206.103 201.722 206.208 200.999 206.567 200.395C206.927 199.79 207.512 199.352 208.193 199.178C208.875 199.004 209.598 199.108 210.204 199.467L216.948 203.474C217.553 203.834 217.991 204.419 218.165 205.102C218.339 205.784 218.234 206.508 217.874 207.113C217.515 207.718 216.929 208.156 216.247 208.33C215.564 208.503 214.841 208.399 214.236 208.039Z" fill="#6C63FF"/>
<path d="M226.819 142.972C234.454 142.972 240.643 136.783 240.643 129.148C240.643 121.513 234.454 115.324 226.819 115.324C219.184 115.324 212.995 121.513 212.995 129.148C212.995 136.783 219.184 142.972 226.819 142.972Z" fill="#6C63FF"/>
<path d="M0.162598 185.325H187.245V77.0159C187.244 76.2044 186.921 75.4264 186.347 74.8526C185.773 74.2788 184.995 73.956 184.184 73.9551H3.22354C2.41202 73.956 1.634 74.2788 1.06017 74.8526C0.486328 75.4264 0.163535 76.2044 0.162598 77.0159V185.325Z" fill="#CACACA"/>
<path d="M181.465 78.1885H5.94287V177.835H181.465V78.1885Z" fill="white"/>
<path d="M2.51671e-10 182.395V195.76C-6.05125e-06 196.314 0.109122 196.863 0.321155 197.375C0.533187 197.887 0.843972 198.352 1.23576 198.743C1.62755 199.135 2.09268 199.446 2.60458 199.658C3.11649 199.87 3.66514 199.979 4.21922 199.979H73.2698V226.356H72.3525C72.2806 226.356 72.2093 226.371 72.1428 226.398C72.0763 226.426 72.0159 226.466 71.965 226.517C71.9141 226.568 71.8737 226.628 71.8462 226.695C71.8186 226.761 71.8044 226.833 71.8045 226.904V228.739C71.8044 228.811 71.8186 228.882 71.8462 228.949C71.8737 229.015 71.9141 229.076 71.965 229.127C72.0159 229.178 72.0763 229.218 72.1428 229.246C72.2093 229.273 72.2806 229.287 72.3525 229.287H115.218C115.29 229.287 115.361 229.273 115.428 229.246C115.494 229.218 115.555 229.178 115.606 229.127C115.657 229.076 115.697 229.015 115.725 228.949C115.752 228.882 115.766 228.811 115.766 228.739V226.905C115.766 226.833 115.752 226.761 115.725 226.695C115.697 226.628 115.657 226.568 115.606 226.517C115.555 226.466 115.494 226.426 115.428 226.398C115.362 226.371 115.29 226.356 115.218 226.356H114.301V199.979H183.352C183.906 199.979 184.454 199.87 184.966 199.658C185.478 199.446 185.943 199.135 186.335 198.744C186.727 198.352 187.038 197.887 187.25 197.375C187.462 196.863 187.571 196.314 187.571 195.76V182.395L2.51671e-10 182.395Z" fill="#3F3D56"/>
<path d="M156.067 111.514H72.9464C72.4224 111.514 71.9199 111.306 71.5494 110.936C71.1789 110.565 70.9707 110.063 70.9707 109.539C70.9707 109.015 71.1789 108.512 71.5494 108.142C71.9199 107.771 72.4224 107.563 72.9464 107.563H156.067C156.591 107.563 157.093 107.771 157.464 108.142C157.834 108.512 158.043 109.015 158.043 109.539C158.043 110.063 157.834 110.565 157.464 110.936C157.093 111.306 156.591 111.514 156.067 111.514Z" fill="#E6E6E6"/>
<path d="M128.177 120.433H100.836C100.312 120.433 99.8096 120.225 99.4391 119.854C99.0685 119.484 98.8604 118.981 98.8604 118.457C98.8604 117.933 99.0685 117.431 99.4391 117.06C99.8096 116.69 100.312 116.481 100.836 116.481H128.177C128.701 116.481 129.203 116.69 129.574 117.06C129.944 117.431 130.153 117.933 130.153 118.457C130.153 118.981 129.944 119.484 129.574 119.854C129.203 120.225 128.701 120.433 128.177 120.433Z" fill="#E6E6E6"/>
<path d="M128.177 138.524H100.836C100.312 138.524 99.8096 138.316 99.4391 137.946C99.0685 137.575 98.8604 137.073 98.8604 136.549C98.8604 136.025 99.0685 135.522 99.4391 135.151C99.8096 134.781 100.312 134.573 100.836 134.573H128.177C128.701 134.573 129.203 134.781 129.574 135.151C129.944 135.522 130.153 136.025 130.153 136.549C130.153 137.073 129.944 137.575 129.574 137.946C129.203 138.316 128.701 138.524 128.177 138.524Z" fill="#E6E6E6"/>
<path d="M128.177 147.79H100.836C100.577 147.79 100.32 147.739 100.08 147.64C99.8403 147.541 99.6225 147.395 99.439 147.212C99.2556 147.028 99.11 146.81 99.0107 146.571C98.9115 146.331 98.8604 146.074 98.8604 145.815C98.8604 145.555 98.9115 145.298 99.0107 145.059C99.11 144.819 99.2556 144.601 99.439 144.418C99.6225 144.234 99.8403 144.089 100.08 143.989C100.32 143.89 100.577 143.839 100.836 143.839H128.177C128.436 143.839 128.693 143.89 128.933 143.989C129.173 144.089 129.39 144.234 129.574 144.418C129.757 144.601 129.903 144.819 130.002 145.059C130.101 145.298 130.152 145.555 130.152 145.815C130.152 146.074 130.101 146.331 130.002 146.571C129.903 146.81 129.757 147.028 129.574 147.212C129.39 147.395 129.173 147.541 128.933 147.64C128.693 147.739 128.436 147.79 128.177 147.79Z" fill="#E6E6E6"/>
<path d="M143.51 129.352H85.5026C84.9786 129.352 84.4761 129.144 84.1055 128.773C83.735 128.403 83.5269 127.9 83.5269 127.376C83.5269 126.852 83.735 126.35 84.1055 125.979C84.4761 125.609 84.9786 125.4 85.5026 125.4H143.51C144.034 125.4 144.537 125.609 144.907 125.979C145.278 126.35 145.486 126.852 145.486 127.376C145.486 127.9 145.278 128.403 144.907 128.773C144.537 129.144 144.034 129.352 143.51 129.352Z" fill="#E6E6E6"/>
<path d="M154.683 166.762H144.756C143.865 166.762 143.01 166.408 142.38 165.778C141.75 165.148 141.396 164.294 141.396 163.403C141.396 162.512 141.75 161.657 142.38 161.027C143.01 160.397 143.865 160.043 144.756 160.043H154.683C155.574 160.043 156.429 160.397 157.059 161.027C157.689 161.657 158.043 162.512 158.043 163.403C158.043 164.294 157.689 165.148 157.059 165.778C156.429 166.408 155.574 166.762 154.683 166.762Z" fill="#6C63FF"/>
<path d="M46.8088 142.378C56.3525 142.378 64.0892 134.641 64.0892 125.097C64.0892 115.554 56.3525 107.817 46.8088 107.817C37.265 107.817 29.5283 115.554 29.5283 125.097C29.5283 134.641 37.265 142.378 46.8088 142.378Z" fill="#6C63FF"/>
<path d="M249.025 230H0.457377C0.33634 230 0.220384 229.951 0.134921 229.866C0.0494593 229.78 0.00146484 229.664 0.00146484 229.543C0.00146484 229.422 0.0494593 229.306 0.134921 229.22C0.220384 229.134 0.33634 229.086 0.457377 229.085H249.025C249.146 229.086 249.262 229.134 249.347 229.22C249.433 229.306 249.481 229.422 249.481 229.543C249.481 229.664 249.433 229.78 249.347 229.866C249.262 229.951 249.146 230 249.025 230Z" fill="#CACACA"/>
<path d="M93.6225 76.0721C93.9822 76.0721 94.2738 75.7805 94.2738 75.4208C94.2738 75.0611 93.9822 74.7695 93.6225 74.7695C93.2628 74.7695 92.9712 75.0611 92.9712 75.4208C92.9712 75.7805 93.2628 76.0721 93.6225 76.0721Z" fill="white"/>
</g>
<defs>
<clipPath id="clip0_207_2022">
<rect width="279.656" height="230" fill="white"/>
</clipPath>
</defs>
</svg>
