<svg width="50" height="50" viewBox="0 0 50 50" fill="none" xmlns="http://www.w3.org/2000/svg">
<path d="M41.6542 12.5001C41.6542 12.5001 42.6958 36.4584 25.1792 45.8334C7.30416 36.4584 8.34582 12.5001 8.34582 12.5001C16.675 12.5001 25 4.16675 25 4.16675C25 4.16675 32.2875 12.5001 41.6542 12.5001Z" fill="#FFC107"/>
<path d="M34.375 22.1844L32.5396 18.8844L27.876 20.2885L26.925 15.625H23.076L22.1281 20.2552L17.5052 18.8312L15.6458 22.1146L19.125 24.975L15.625 27.8156L17.4604 31.1115L22.124 29.7115L23.075 34.375H26.924L27.8719 29.7448L32.4906 31.1688L34.35 27.8854L30.875 25.0208L34.375 22.1844ZM29.8094 25C29.8094 27.5875 27.6573 29.6875 25 29.6875C22.3427 29.6875 20.1906 27.5875 20.1906 25C20.1906 22.4125 22.3427 20.3125 25 20.3125C27.6573 20.3125 29.8094 22.4125 29.8094 25Z" fill="#5D4037"/>
<path d="M31.7707 25.0001C31.7707 21.2605 28.7394 18.2292 24.9998 18.2292C21.2603 18.2292 18.229 21.2605 18.229 25.0001C18.229 28.7397 21.2603 31.7709 24.9998 31.7709C28.7394 31.7709 31.7707 28.7397 31.7707 25.0001ZM28.1248 25.0001C28.1248 26.7251 26.7248 28.1251 24.9998 28.1251C23.2748 28.1251 21.8748 26.7251 21.8748 25.0001C21.8748 23.2751 23.2748 21.8751 24.9998 21.8751C26.7248 21.8751 28.1248 23.2751 28.1248 25.0001Z" fill="#5D4037"/>
</svg>
