<svg width="10" height="17" viewBox="0 0 10 17" fill="none" xmlns="http://www.w3.org/2000/svg">
<path d="M7.00907 8.49999L0.56481 14.9427L0.564788 14.9427C0.366862 15.1406 0.25567 15.4091 0.25567 15.689C0.25567 15.9689 0.366862 16.2373 0.564788 16.4353C0.762713 16.6332 1.03116 16.7444 1.31107 16.7444C1.59097 16.7444 1.85942 16.6332 2.05734 16.4353L1.8766 16.2545L2.05734 16.4353L9.24612 9.2465L7.00907 8.49999ZM7.00907 8.49999L0.56481 2.05729L0.564788 2.05726C0.366862 1.85934 0.25567 1.59089 0.25567 1.31099C0.25567 1.03108 0.366862 0.762633 0.564788 0.564708C0.762713 0.366782 1.03116 0.255591 1.31107 0.255591C1.59097 0.255591 1.85942 0.366782 2.05734 0.564708L9.24612 7.75348C9.24615 7.75351 9.24617 7.75354 9.2462 7.75356C9.34435 7.85149 9.42223 7.96782 9.47537 8.09588L9.23994 8.19357L9.47537 8.09588C9.52852 8.22398 9.55589 8.3613 9.55589 8.49999C9.55589 8.63868 9.52852 8.776 9.47537 8.9041C9.42226 9.0321 9.34443 9.14837 9.24635 9.24627L7.00907 8.49999Z" fill="white" stroke="white" stroke-width="0.5"/>
</svg>
