<svg width="50" height="50" viewBox="0 0 50 50" fill="none" xmlns="http://www.w3.org/2000/svg">
<g clip-path="url(#clip0_207_2185)">
<path d="M25.0002 44.7917L19.7918 32.2917C19.7918 32.2917 8.3335 34.3647 8.3335 45.8334H25.9252C25.6512 45.3595 25.397 44.874 25.1762 44.3678L25.0002 44.7917Z" fill="#3F51B5"/>
<path d="M33.594 36.9272C33.9273 35.922 34.5638 35.0553 35.3888 34.423C32.7179 32.7584 30.2086 32.2917 30.2086 32.2917L25.1763 44.3678C25.3971 44.873 25.6502 45.3595 25.9252 45.8334H31.2502C31.2502 45.8334 33.4252 37.4345 33.594 36.9272Z" fill="#303F9F"/>
<path d="M24.9998 38.5417L19.7915 32.2917V26.0417H30.2082V32.2917L24.9998 38.5417Z" fill="#FF9800"/>
<path d="M36.4582 19.7916C36.4582 20.9437 35.5248 21.8749 34.3748 21.8749C33.2228 21.8749 32.2915 20.9437 32.2915 19.7916C32.2915 18.6405 33.2228 17.7083 34.3748 17.7083C35.5248 17.7083 36.4582 18.6405 36.4582 19.7916ZM17.7082 19.7916C17.7082 18.6405 16.7748 17.7083 15.6248 17.7083C14.4728 17.7083 13.5415 18.6405 13.5415 19.7916C13.5415 20.9437 14.4728 21.8749 15.6248 21.8749C16.7748 21.8749 17.7082 20.9437 17.7082 19.7916Z" fill="#FFA726"/>
<path d="M34.375 13.5417C34.375 5.58862 15.625 8.36362 15.625 13.5417V20.8334C15.625 26.0115 19.8208 30.2084 25 30.2084C30.1781 30.2084 34.375 26.0115 34.375 20.8334V13.5417Z" fill="#FFB74D"/>
<path d="M25.0002 4.16675C18.672 4.16675 14.5835 9.298 14.5835 15.6251V18.0053L16.6668 19.7917V14.5834L29.1668 10.4167L33.3335 14.5834V19.7917L35.4168 17.9772V15.6251C35.4168 11.4324 34.3356 7.27508 29.1668 6.25008L28.1252 4.16675H25.0002Z" fill="#424242"/>
<path d="M24.9998 44.7917L19.7915 32.2917L24.9998 33.3334L30.2082 32.2917L24.9998 44.7917Z" fill="white"/>
<path d="M26.0415 36.4583L26.6873 40.7603L26.1769 41.9791L24.9998 44.7916L23.3123 40.7499L23.9582 36.4583L22.9165 35.4166L24.9998 33.3333L27.0832 35.4166L26.0415 36.4583Z" fill="#D32F2F"/>
<path d="M47.0833 39.6874C47.1875 39.2708 47.1875 38.8541 47.1875 38.5416C47.1875 38.2291 47.1875 37.7083 47.0833 37.3958L49.4792 35.6249C49.6875 35.4166 49.7917 35.1041 49.6875 34.8958L47.2917 30.8333C47.1875 30.6249 46.875 30.5208 46.5625 30.6249L43.8542 31.8749C43.2292 31.3541 42.5 30.9374 41.7708 30.6249L41.4583 27.6041C41.4583 27.2916 41.1458 27.0833 40.9375 27.0833H36.1458C35.9375 27.0833 35.625 27.2916 35.625 27.6041L35.3125 30.6249C34.5833 30.8333 33.8542 31.2499 33.2292 31.7708L30.5208 30.5208C30.2083 30.4166 29.8958 30.5208 29.7917 30.7291L27.3958 34.8958C27.2917 35.1041 27.3958 35.4166 27.6042 35.6249L30 37.3958C29.8958 37.8124 29.8958 38.2291 29.8958 38.5416C29.8958 38.8541 29.8958 39.3749 30 39.6874L27.6042 41.4583C27.3958 41.6666 27.2917 41.9791 27.3958 42.1874L29.7917 46.2499C29.8958 46.4583 30.2083 46.5624 30.5208 46.4583L33.2292 45.2083C33.8542 45.7291 34.5833 46.1458 35.3125 46.4583L35.625 49.4791C35.625 49.7916 35.9375 49.9999 36.1458 49.9999H40.8333C41.1458 49.9999 41.3542 49.7916 41.3542 49.4791L41.6667 46.4583C42.3958 46.1458 43.125 45.7291 43.75 45.2083L46.4583 46.4583C46.7708 46.5624 47.0833 46.4583 47.1875 46.2499L49.5833 42.1874C49.6875 41.9791 49.6875 41.5624 49.375 41.4583L47.0833 39.6874ZM38.5417 43.9583C35.5208 43.9583 33.125 41.5624 33.125 38.5416C33.125 35.5208 35.5208 33.1249 38.5417 33.1249C41.5625 33.1249 43.9583 35.5208 43.9583 38.5416C43.9583 41.5624 41.5625 43.9583 38.5417 43.9583Z" fill="#607D8B"/>
<path d="M38.5415 32.2917C35.104 32.2917 32.2915 35.1042 32.2915 38.5417C32.2915 41.9792 35.104 44.7917 38.5415 44.7917C41.979 44.7917 44.7915 41.9792 44.7915 38.5417C44.7915 35.1042 41.979 32.2917 38.5415 32.2917ZM38.5415 41.6667C36.7707 41.6667 35.4165 40.3126 35.4165 38.5417C35.4165 36.7709 36.7707 35.4167 38.5415 35.4167C40.3123 35.4167 41.6665 36.7709 41.6665 38.5417C41.6665 40.3126 40.3123 41.6667 38.5415 41.6667Z" fill="#455A64"/>
</g>
<defs>
<clipPath id="clip0_207_2185">
<rect width="50" height="50" fill="white"/>
</clipPath>
</defs>
</svg>
