<svg width="50" height="50" viewBox="0 0 50 50" fill="none" xmlns="http://www.w3.org/2000/svg">
<path d="M30.2085 13.4375H40.6252V25.1042H30.2085V13.4375Z" fill="#BF360C"/>
<path d="M45.8333 32.2917V44.7917H25V32.2917C25 25.1042 32.1875 23.8542 32.1875 23.8542H38.75C38.6458 23.8542 45.8333 25.1042 45.8333 32.2917Z" fill="#3F51B5"/>
<path d="M35.4165 27.3958C32.9165 27.3958 32.2915 23.9583 32.2915 23.9583V19.8958H38.5415V23.9583C38.5415 23.9583 37.9165 27.3958 35.4165 27.3958Z" fill="#FF9800"/>
<path d="M41.6665 11.7707C41.6665 6.45823 29.1665 8.33323 29.1665 11.7707C29.1665 12.4999 29.1665 15.9374 29.1665 16.6666C29.1665 20.1041 31.979 22.9166 35.4165 22.9166C38.854 22.9166 41.6665 20.1041 41.6665 16.6666C41.6665 15.9374 41.6665 12.4999 41.6665 11.7707Z" fill="#FFCE87"/>
<path d="M35.4165 5.20825C31.4582 5.20825 26.0415 8.02075 26.0415 22.9166L30.2082 24.4791V15.6249L37.4998 11.4583L40.6248 14.5833V24.4791L44.7915 21.8749C44.7915 16.3541 44.5832 6.24992 37.9165 6.24992L37.2915 5.20825H35.4165Z" fill="#FF5722"/>
<path d="M35.4165 28.1249C32.604 28.1249 32.2915 23.9583 32.2915 23.9583C32.2915 23.9583 33.229 27.0833 35.4165 27.0833C37.604 27.0833 38.5415 23.9583 38.5415 23.9583C38.5415 23.9583 38.229 28.1249 35.4165 28.1249Z" fill="#FFCE87"/>
<path d="M14.5831 27.7083C11.2498 27.7083 11.4581 23.9583 11.4581 23.9583V20.2083H17.7081V23.9583C17.7081 23.9583 17.9165 27.7083 14.5831 27.7083Z" fill="#FF9800"/>
<path d="M20.3123 14.5833C19.8979 14.5833 19.5005 14.7479 19.2075 15.0409C18.9145 15.3339 18.7498 15.7314 18.7498 16.1458C18.7498 16.5602 18.9145 16.9576 19.2075 17.2506C19.5005 17.5436 19.8979 17.7083 20.3123 17.7083C20.7267 17.7083 21.1242 17.5436 21.4172 17.2506C21.7102 16.9576 21.8748 16.5602 21.8748 16.1458C21.8748 15.7314 21.7102 15.3339 21.4172 15.0409C21.1242 14.7479 20.7267 14.5833 20.3123 14.5833ZM8.854 14.5833C8.4396 14.5833 8.04217 14.7479 7.74915 15.0409C7.45612 15.3339 7.2915 15.7314 7.2915 16.1458C7.2915 16.5602 7.45612 16.9576 7.74915 17.2506C8.04217 17.5436 8.4396 17.7083 8.854 17.7083C9.2684 17.7083 9.66583 17.5436 9.95886 17.2506C10.2519 16.9576 10.4165 16.5602 10.4165 16.1458C10.4165 15.7314 10.2519 15.3339 9.95886 15.0409C9.66583 14.7479 9.2684 14.5833 8.854 14.5833Z" fill="#FFA726"/>
<path d="M20.8335 11.7707C20.8335 6.45823 8.3335 8.33323 8.3335 11.7707C8.3335 12.4999 8.3335 15.9374 8.3335 16.6666C8.3335 20.1041 11.146 22.9166 14.5835 22.9166C18.021 22.9166 20.8335 20.1041 20.8335 16.6666C20.8335 15.9374 20.8335 12.4999 20.8335 11.7707Z" fill="#FFCE87"/>
<path d="M14.5832 5.20825C10.104 5.20825 7.2915 8.74992 7.2915 13.2291C7.2915 13.8541 7.2915 15.6249 7.2915 15.6249L8.74984 16.1458V12.4999L17.4998 9.58325L20.4165 12.4999V16.1458L21.8748 15.6249C21.8748 15.6249 21.8748 13.8541 21.8748 13.2291C21.8748 10.3124 21.1457 7.39575 17.4998 6.66659L16.7707 5.20825H14.5832Z" fill="#424242"/>
<path d="M17.7082 23.8542C17.7082 23.8542 17.2915 26.0417 14.5832 26.0417C11.8748 26.0417 11.4582 23.8542 11.4582 23.8542C11.4582 23.8542 4.1665 25.1042 4.1665 32.2917V44.7917H24.9998V32.2917C24.9998 25.1042 17.7082 23.8542 17.7082 23.8542Z" fill="#009688"/>
<path d="M24.9999 41.6667C22.7082 41.6667 22.9166 39.5834 22.9166 39.5834V36.6667H27.0832V39.5834C27.0832 39.5834 27.2916 41.6667 24.9999 41.6667Z" fill="#FF9800"/>
<path d="M29.1665 32.3958C28.8902 32.3958 28.6253 32.5055 28.4299 32.7008C28.2346 32.8962 28.1248 33.1611 28.1248 33.4374C28.1248 33.7137 28.2346 33.9786 28.4299 34.174C28.6253 34.3693 28.8902 34.4791 29.1665 34.4791C29.4428 34.4791 29.7077 34.3693 29.9031 34.174C30.0984 33.9786 30.2082 33.7137 30.2082 33.4374C30.2082 33.1611 30.0984 32.8962 29.9031 32.7008C29.7077 32.5055 29.4428 32.3958 29.1665 32.3958ZM20.8332 32.3958C20.5569 32.3958 20.292 32.5055 20.0966 32.7008C19.9012 32.8962 19.7915 33.1611 19.7915 33.4374C19.7915 33.7137 19.9012 33.9786 20.0966 34.174C20.292 34.3693 20.5569 34.4791 20.8332 34.4791C21.1094 34.4791 21.3744 34.3693 21.5697 34.174C21.7651 33.9786 21.8748 33.7137 21.8748 33.4374C21.8748 33.1611 21.7651 32.8962 21.5697 32.7008C21.3744 32.5055 21.1094 32.3958 20.8332 32.3958Z" fill="#FFA726"/>
<path d="M29.1668 31.2499C29.1668 27.7082 20.8335 28.9582 20.8335 31.2499C20.8335 31.7707 20.8335 33.9582 20.8335 34.4791C20.8335 36.7707 22.7085 38.6457 25.0002 38.6457C27.2918 38.6457 29.1668 36.7707 29.1668 34.4791C29.1668 33.9582 29.1668 31.6666 29.1668 31.2499Z" fill="#FFCE87"/>
<path d="M24.9998 26.1458C21.8748 26.1458 19.7915 28.7499 19.7915 31.8749C19.7915 32.2916 19.7915 33.5416 19.7915 33.5416L20.8332 33.9582V31.3541L27.0832 29.2708L29.1665 31.3541V33.9582L30.2082 33.5416C30.2082 33.5416 30.2082 32.2916 30.2082 31.8749C30.2082 29.7916 29.6873 27.7083 27.0832 27.1874L26.5623 26.1458H24.9998Z" fill="#FF5722"/>
<path d="M27.0835 38.8542C27.0835 38.8542 26.771 40.6251 25.0002 40.6251C23.2293 40.6251 22.9168 38.8542 22.9168 38.8542C22.9168 38.8542 17.7085 39.7917 17.7085 44.7917H32.2918C32.2918 39.7917 27.0835 38.8542 27.0835 38.8542Z" fill="#00BCD4"/>
</svg>
