<svg width="50" height="50" viewBox="0 0 50 50" fill="none" xmlns="http://www.w3.org/2000/svg">
<path d="M45.8333 5.20825H9.375V33.3333H45.8333V5.20825Z" fill="#DD7C12"/>
<path d="M43.7502 7.29175H11.4585V32.2917H43.7502V7.29175Z" fill="#009688"/>
<path d="M47.9165 36.4584V34.3751C47.9165 33.2292 46.979 32.2917 45.8332 32.2917H9.37484C8.229 32.2917 7.2915 33.2292 7.2915 34.3751V36.4584H47.9165Z" fill="#773D04"/>
<path d="M10.4168 19.7917C7.50016 19.7917 5.2085 17.5 5.2085 14.5833C5.2085 11.6667 7.60433 9.375 10.4168 9.375C13.3335 9.375 15.6252 11.6667 15.6252 14.5833C15.6252 17.5 13.2293 19.7917 10.4168 19.7917Z" fill="#FFB74D"/>
<path d="M5.2085 42.7083L2.0835 40.6249V36.4583H5.2085V42.7083Z" fill="#FFB74D"/>
<path d="M29.1668 20.9636V24.7136L25.6512 27.3438L23.9585 24.7397L29.1668 20.9636Z" fill="#FFB74D"/>
<path d="M25.595 22.9271L21.8741 25.6416C21.8741 25.6416 15.6054 21.9854 15.1043 21.7094C14.6814 21.4771 14.2752 21.2844 13.8939 21.1802C13.7314 21.1354 13.5575 21.0916 13.3752 21.051C12.8022 20.926 12.1252 20.8323 11.4272 20.8323H10.3856C9.30225 20.8323 8.34391 20.9364 7.51058 21.1239C3.21891 22.0833 2.0835 25.3333 2.0835 29.1667V37.5L5.2085 39.5833V44.7917H15.6252L16.6668 30.8594V27.4406L20.9616 29.9271C21.2856 30.1156 21.646 30.2083 22.0054 30.2083C22.4377 30.2083 22.8689 30.0739 23.2335 29.8073L28.0512 26.2916L25.595 22.9271Z" fill="#455A64"/>
<path d="M13.3748 21.052L10.4373 24.9999L7.51025 21.1249C8.34359 20.9374 9.30192 20.8333 10.3853 20.8333H11.4269C12.1248 20.8333 12.8019 20.927 13.3748 21.052Z" fill="#E3F2FD"/>
<path d="M32.2917 10.4167H18.75V12.5001H32.2917V10.4167Z" fill="white"/>
<path d="M40.625 15.625H18.75V17.7083H40.625V15.625Z" fill="white"/>
<path d="M40.625 10.4167H34.375V12.5001H40.625V10.4167Z" fill="white"/>
</svg>
